<svg version="1.1" id="Layer_1" xmlns="http://www.w3.org/2000/svg" xmlns:xlink="http://www.w3.org/1999/xlink" x="0px"
	y="0px" width="100%" viewBox="0 0 512 512" enable-background="new 0 0 512 512" xml:space="preserve">
	<path fill="none" opacity="1.000000" stroke="none" d="
M351.000000,513.000000 
	C234.028427,513.000000 117.556847,513.000000 1.042632,513.000000 
	C1.042632,342.403412 1.042632,171.806793 1.042632,1.105087 
	C171.554916,1.105087 342.109924,1.105087 512.832458,1.105087 
	C512.832458,171.666534 512.832458,342.333252 512.832458,513.000000 
	C459.140045,513.000000 405.320038,513.000000 351.000000,513.000000 
M339.984802,108.000595 
	C343.648499,107.999306 347.315674,108.099281 350.975189,107.974770 
	C357.738800,107.744629 361.955444,103.406281 361.993561,96.760277 
	C362.021271,91.931000 362.021332,87.101303 361.993652,82.272026 
	C361.953156,75.198349 357.689178,71.014053 350.471924,71.007271 
	C331.820312,70.989731 313.168701,70.989281 294.517090,71.007553 
	C287.360199,71.014572 283.081726,75.241295 283.010773,82.364143 
	C282.962677,87.193100 282.859985,92.028389 283.044861,96.850754 
	C283.212830,101.232048 284.912628,105.484367 289.308899,106.496040 
	C294.684631,107.733116 300.383575,107.565735 305.993256,108.940186 
	C305.991272,114.910599 305.989288,120.881012 305.121857,126.979492 
	C287.314148,128.753464 270.472473,133.815201 254.203033,141.237152 
	C245.968079,144.993866 237.531372,148.933670 228.762817,150.764877 
	C210.596695,154.558655 192.188766,157.286087 173.802063,159.902557 
	C159.492340,161.938873 145.652557,165.128540 133.354004,172.998047 
	C126.436432,177.424408 120.009529,182.551300 115.771942,189.165039 
	C125.620728,190.454147 135.425415,191.341476 145.071930,193.097580 
	C157.946075,195.441269 168.787476,206.646149 169.685532,218.095322 
	C168.348404,217.852188 167.129303,217.620178 165.906479,217.409790 
	C154.467758,215.441727 142.741882,214.135788 131.809097,218.322815 
	C120.663811,222.591217 109.937592,228.203613 99.552475,234.144577 
	C86.213799,241.775131 72.375519,245.436859 57.277931,241.852097 
	C50.808990,240.316116 44.636944,237.529694 38.305962,235.302979 
	C38.184704,235.808105 37.962337,236.175903 38.055084,236.427551 
	C45.664925,257.075226 56.036160,275.842896 73.486771,290.056061 
	C92.845581,305.823364 114.267120,311.610413 138.795380,305.175629 
	C146.465088,303.163574 154.408585,301.953583 162.305283,301.121887 
	C169.091476,300.407135 176.115860,306.593414 171.130051,315.588623 
	C167.389191,322.337769 162.037155,327.247009 154.928070,329.894165 
	C144.460800,333.791779 133.712845,336.824493 122.418121,333.934082 
	C116.937561,332.531555 111.630486,330.451172 104.879684,328.228119 
	C109.508652,338.028961 113.116302,347.430023 118.162407,355.982330 
	C128.480728,373.470154 144.093399,382.730499 164.633514,382.979706 
	C176.565125,383.124451 187.871460,379.874329 198.936081,375.873535 
	C203.696564,374.152252 207.165176,375.740906 209.568817,379.308105 
	C212.025711,382.954346 211.970261,387.146118 208.794189,390.675873 
	C203.380524,396.692322 197.870026,402.621613 192.348648,408.643768 
	C192.790787,408.831177 193.203751,409.035431 193.635620,409.185181 
	C219.352783,418.101990 244.861847,427.701355 270.877899,435.639099 
	C284.009003,439.645508 297.982513,441.634979 311.716827,442.688049 
	C322.956299,443.549805 334.425293,441.904846 345.757538,440.954132 
	C361.672394,439.618927 376.558594,434.388977 390.824524,427.543579 
	C412.537872,417.124573 431.017212,402.605225 446.051239,383.600098 
	C456.162781,370.817749 464.394073,357.110992 470.056885,341.845306 
	C478.525970,319.014526 483.120300,295.619354 479.959656,271.186584 
	C478.747772,261.818390 477.842560,252.307266 475.452820,243.214722 
	C469.241486,219.581970 457.939270,198.468048 442.143707,179.389938 
	C443.830841,177.382202 445.879700,175.578064 447.143616,173.332169 
	C453.201263,162.568161 449.158783,149.517395 437.942596,142.994156 
	C426.694153,136.452148 414.522369,139.691757 407.212494,150.730316 
	C386.520416,136.939529 363.642181,129.392151 339.002075,125.935738 
	C339.021210,119.959175 339.040375,113.982605 339.984802,108.000595 
z" />
	<path fill="#FD6B65" opacity="1.000000" stroke="none" d="
M339.011505,126.849625 
	C363.642181,129.392151 386.520416,136.939529 407.729034,151.142609 
	C414.420654,156.267502 420.782471,160.758514 426.715118,165.758774 
	C432.001251,170.214081 436.812469,175.232849 441.833282,180.002930 
	C457.939270,198.468048 469.241486,219.581970 475.452820,243.214722 
	C477.842560,252.307266 478.747772,261.818390 479.959656,271.186584 
	C483.120300,295.619354 478.525970,319.014526 470.056885,341.845306 
	C464.394073,357.110992 456.162781,370.817749 446.051239,383.600098 
	C431.017212,402.605225 412.537872,417.124573 390.824524,427.543579 
	C376.558594,434.388977 361.672394,439.618927 345.757538,440.954132 
	C334.425293,441.904846 322.956299,443.549805 311.716827,442.688049 
	C297.982513,441.634979 284.009003,439.645508 270.877899,435.639099 
	C244.861847,427.701355 219.352783,418.101990 193.635620,409.185181 
	C193.203751,409.035431 192.790787,408.831177 192.348648,408.643768 
	C197.870026,402.621613 203.380524,396.692322 208.794189,390.675873 
	C211.970261,387.146118 212.025711,382.954346 209.568817,379.308105 
	C207.165176,375.740906 203.696564,374.152252 198.936081,375.873535 
	C187.871460,379.874329 176.565125,383.124451 164.633514,382.979706 
	C144.093399,382.730499 128.480728,373.470154 118.162407,355.982330 
	C113.116302,347.430023 109.508652,338.028961 104.879684,328.228119 
	C111.630486,330.451172 116.937561,332.531555 122.418121,333.934082 
	C133.712845,336.824493 144.460800,333.791779 154.928070,329.894165 
	C162.037155,327.247009 167.389191,322.337769 171.130051,315.588623 
	C176.115860,306.593414 169.091476,300.407135 162.305283,301.121887 
	C154.408585,301.953583 146.465088,303.163574 138.795380,305.175629 
	C114.267120,311.610413 92.845581,305.823364 73.486771,290.056061 
	C56.036160,275.842896 45.664925,257.075226 38.055084,236.427551 
	C37.962337,236.175903 38.184704,235.808105 38.305962,235.302979 
	C44.636944,237.529694 50.808990,240.316116 57.277931,241.852097 
	C72.375519,245.436859 86.213799,241.775131 99.552475,234.144577 
	C109.937592,228.203613 120.663811,222.591217 131.809097,218.322815 
	C142.741882,214.135788 154.467758,215.441727 165.906479,217.409790 
	C167.129303,217.620178 168.348404,217.852188 169.685532,218.095322 
	C168.787476,206.646149 157.946075,195.441269 145.071930,193.097580 
	C135.425415,191.341476 125.620728,190.454147 115.771942,189.165039 
	C120.009529,182.551300 126.436432,177.424408 133.354004,172.998047 
	C145.652557,165.128540 159.492340,161.938873 173.802063,159.902557 
	C192.188766,157.286087 210.596695,154.558655 228.762817,150.764877 
	C237.531372,148.933670 245.968079,144.993866 254.203033,141.237152 
	C270.472473,133.815201 287.314148,128.753464 306.012421,126.978188 
	C317.605835,126.934464 328.308655,126.892036 339.011505,126.849625 
M371.331451,182.102905 
	C351.855652,173.053406 331.519989,169.530121 310.070770,171.799744 
	C247.689102,178.400589 201.651825,236.873169 210.247726,298.840759 
	C218.782288,360.366211 271.861237,402.559052 333.908691,397.139679 
	C392.298553,392.039825 438.716614,339.279724 435.585938,280.607666 
	C433.205597,235.996307 411.600189,203.241852 371.331451,182.102905 
z" />
	<path fill="#808080" opacity="1.000000" stroke="none" d="
M305.942749,108.005661 
	C300.383575,107.565735 294.684631,107.733116 289.308899,106.496040 
	C284.912628,105.484367 283.212830,101.232048 283.044861,96.850754 
	C282.859985,92.028389 282.962677,87.193100 283.010773,82.364143 
	C283.081726,75.241295 287.360199,71.014572 294.517090,71.007553 
	C313.168701,70.989281 331.820312,70.989731 350.471924,71.007271 
	C357.689178,71.014053 361.953156,75.198349 361.993652,82.272026 
	C362.021332,87.101303 362.021271,91.931000 361.993561,96.760277 
	C361.955444,103.406281 357.738800,107.744629 350.975189,107.974770 
	C347.315674,108.099281 343.648499,107.999306 339.050781,107.967026 
	C327.392090,107.957527 316.667419,107.981598 305.942749,108.005661 
z" />
	<path fill="#808080" opacity="1.000000" stroke="none" d="
M441.988495,179.696442 
	C436.812469,175.232849 432.001251,170.214081 426.715118,165.758774 
	C420.782471,160.758514 414.420654,156.267502 408.038177,151.281769 
	C414.522369,139.691757 426.694153,136.452148 437.942596,142.994156 
	C449.158783,149.517395 453.201263,162.568161 447.143616,173.332169 
	C445.879700,175.578064 443.830841,177.382202 441.988495,179.696442 
z" />
	<path fill="#CCCBCB" opacity="1.000000" stroke="none" d="
M305.968018,108.472923 
	C316.667419,107.981598 327.392090,107.957527 338.588135,107.969749 
	C339.040375,113.982605 339.021210,119.959175 339.006775,126.392677 
	C328.308655,126.892036 317.605835,126.934464 306.445129,126.914154 
	C305.989288,120.881012 305.991272,114.910599 305.968018,108.472923 
z" />
	<path fill="#F2F1F1" opacity="1.000000" stroke="none" d="
M371.668396,182.268524 
	C411.600189,203.241852 433.205597,235.996307 435.585938,280.607666 
	C438.716614,339.279724 392.298553,392.039825 333.908691,397.139679 
	C271.861237,402.559052 218.782288,360.366211 210.247726,298.840759 
	C201.651825,236.873169 247.689102,178.400589 310.070770,171.799744 
	C331.519989,169.530121 351.855652,173.053406 371.668396,182.268524 
M338.346863,297.786407 
	C343.481201,291.373871 344.632751,284.237183 341.577362,276.687134 
	C340.492157,274.005524 341.024139,272.501190 342.926361,270.637543 
	C350.544525,263.173828 358.050537,255.594940 365.550385,248.011505 
	C369.294769,244.225357 369.749146,240.617920 366.670441,238.093597 
	C363.019348,235.099960 359.949158,236.736923 357.070190,239.654938 
	C349.696381,247.128784 342.191589,254.474228 334.869873,261.998169 
	C332.602417,264.328247 330.652283,265.332153 327.079315,264.436005 
	C323.709656,263.590820 319.713684,263.901245 316.301819,264.833191 
	C308.118744,267.068359 302.427887,274.615814 301.950653,282.786041 
	C301.423462,291.812561 306.101929,299.731720 314.110107,303.368042 
	C322.273895,307.074982 330.461823,305.343262 338.346863,297.786407 
M325.387085,363.373779 
	C322.988190,362.924042 320.173523,361.510254 318.314484,362.312103 
	C316.656586,363.027222 315.542786,366.093323 315.118408,368.300659 
	C314.597565,371.009674 314.294952,374.214111 315.294128,376.626007 
	C316.177246,378.757751 318.863922,381.226654 320.963989,381.435211 
	C322.721497,381.609772 326.193359,378.922302 326.428741,377.169464 
	C327.003754,372.887512 326.143585,368.412872 325.387085,363.373779 
M316.522583,205.655136 
	C321.703857,208.675079 326.086609,207.409348 326.738129,202.402344 
	C327.181641,198.993942 327.507355,195.252777 326.517700,192.088211 
	C325.870728,190.019409 322.863129,187.584503 320.750519,187.421814 
	C319.006104,187.287476 315.651154,190.070023 315.420593,191.869019 
	C314.871552,196.152985 315.749207,200.619827 316.522583,205.655136 
M386.302582,355.001831 
	C391.351562,352.925598 392.978516,349.225128 390.077087,345.586731 
	C387.923523,342.886139 385.530518,340.061218 382.612732,338.402374 
	C380.830994,337.389374 377.216980,337.646851 375.606445,338.878052 
	C374.218628,339.938965 373.327087,344.232941 374.257874,345.276520 
	C377.539703,348.956116 381.699738,351.852448 386.302582,355.001831 
M386.334442,213.984985 
	C382.166199,214.493988 374.222687,220.693542 373.747620,224.560532 
	C373.509674,226.497421 374.440308,229.560806 375.878662,230.463333 
	C377.547974,231.510803 380.725983,231.497681 382.574097,230.582199 
	C384.977753,229.391541 386.790741,226.929459 388.726562,224.889862 
	C392.694519,220.709198 392.162598,217.376099 386.334442,213.984985 
M257.221344,214.010010 
	C255.118698,215.248810 251.878479,216.068787 251.225830,217.841431 
	C250.541122,219.701202 251.899704,222.748505 253.168106,224.774124 
	C254.534958,226.956940 256.728455,228.680939 258.750305,230.380249 
	C261.423218,232.626740 264.764801,232.824341 266.577637,229.950256 
	C267.776154,228.050186 268.096588,224.179626 266.927948,222.504227 
	C264.642822,219.228256 261.040131,216.871368 257.221344,214.010010 
M239.861389,290.056549 
	C243.350342,288.981506 245.006821,286.155518 243.705505,283.192566 
	C242.808914,281.151154 239.949341,279.489746 237.614838,278.700653 
	C235.382446,277.946106 232.692856,278.476074 230.207687,278.553253 
	C226.327591,278.673767 223.821655,280.429810 223.917358,284.602448 
	C224.014130,288.822296 226.705475,290.304779 230.537201,290.297729 
	C233.355377,290.292511 236.173447,290.234802 239.861389,290.056549 
M404.781433,290.313660 
	C407.431427,290.280304 410.090240,290.370605 412.729187,290.182373 
	C416.046051,289.945801 417.861053,287.945068 417.968872,284.681152 
	C418.084808,281.171539 416.253784,278.992401 412.725555,278.666504 
	C410.094971,278.423523 407.429626,278.511017 404.780243,278.528198 
	C401.088165,278.552185 398.136749,279.689423 397.907074,283.985535 
	C397.688354,288.077454 399.883911,290.086090 404.781433,290.313660 
M254.157837,354.711700 
	C258.787079,355.064941 267.594208,348.726685 267.960632,344.197052 
	C268.118561,342.244232 267.064240,339.368164 265.574829,338.341064 
	C264.106934,337.328827 260.976105,337.377563 259.322235,338.300354 
	C256.807648,339.703247 254.849197,342.178833 252.814072,344.348480 
	C249.250626,348.147430 249.459091,350.499146 254.157837,354.711700 
z" />
	<path fill="#838383" opacity="1.000000" stroke="none" d="
M338.112549,298.063782 
	C330.461823,305.343262 322.273895,307.074982 314.110107,303.368042 
	C306.101929,299.731720 301.423462,291.812561 301.950653,282.786041 
	C302.427887,274.615814 308.118744,267.068359 316.301819,264.833191 
	C319.713684,263.901245 323.709656,263.590820 327.079315,264.436005 
	C330.652283,265.332153 332.602417,264.328247 334.869873,261.998169 
	C342.191589,254.474228 349.696381,247.128784 357.070190,239.654938 
	C359.949158,236.736923 363.019348,235.099960 366.670441,238.093597 
	C369.749146,240.617920 369.294769,244.225357 365.550385,248.011505 
	C358.050537,255.594940 350.544525,263.173828 342.926361,270.637543 
	C341.024139,272.501190 340.492157,274.005524 341.577362,276.687134 
	C344.632751,284.237183 343.481201,291.373871 338.112549,298.063782 
M315.052979,289.133484 
	C317.450500,292.811462 321.180023,294.271271 324.910583,292.696625 
	C327.410370,291.641510 329.881653,288.869598 330.875153,286.291473 
	C332.274658,282.659729 330.899628,278.488464 327.085999,277.165009 
	C324.194275,276.161530 320.074615,276.176819 317.435760,277.543213 
	C313.271149,279.699646 312.981781,284.103638 315.052979,289.133484 
z" />
	<path fill="#848484" opacity="1.000000" stroke="none" d="
M325.624115,363.694763 
	C326.143585,368.412872 327.003754,372.887512 326.428741,377.169464 
	C326.193359,378.922302 322.721497,381.609772 320.963989,381.435211 
	C318.863922,381.226654 316.177246,378.757751 315.294128,376.626007 
	C314.294952,374.214111 314.597565,371.009674 315.118408,368.300659 
	C315.542786,366.093323 316.656586,363.027222 318.314484,362.312103 
	C320.173523,361.510254 322.988190,362.924042 325.624115,363.694763 
z" />
	<path fill="#838383" opacity="1.000000" stroke="none" d="
M316.286560,205.333954 
	C315.749207,200.619827 314.871552,196.152985 315.420593,191.869019 
	C315.651154,190.070023 319.006104,187.287476 320.750519,187.421814 
	C322.863129,187.584503 325.870728,190.019409 326.517700,192.088211 
	C327.507355,195.252777 327.181641,198.993942 326.738129,202.402344 
	C326.086609,207.409348 321.703857,208.675079 316.286560,205.333954 
z" />
	<path fill="#848484" opacity="1.000000" stroke="none" d="
M385.914642,355.023865 
	C381.699738,351.852448 377.539703,348.956116 374.257874,345.276520 
	C373.327087,344.232941 374.218628,339.938965 375.606445,338.878052 
	C377.216980,337.646851 380.830994,337.389374 382.612732,338.402374 
	C385.530518,340.061218 387.923523,342.886139 390.077087,345.586731 
	C392.978516,349.225128 391.351562,352.925598 385.914642,355.023865 
z" />
	<path fill="#848484" opacity="1.000000" stroke="none" d="
M386.727325,214.050049 
	C392.162598,217.376099 392.694519,220.709198 388.726562,224.889862 
	C386.790741,226.929459 384.977753,229.391541 382.574097,230.582199 
	C380.725983,231.497681 377.547974,231.510803 375.878662,230.463333 
	C374.440308,229.560806 373.509674,226.497421 373.747620,224.560532 
	C374.222687,220.693542 382.166199,214.493988 386.727325,214.050049 
z" />
	<path fill="#828282" opacity="1.000000" stroke="none" d="
M257.602112,214.071991 
	C261.040131,216.871368 264.642822,219.228256 266.927948,222.504227 
	C268.096588,224.179626 267.776154,228.050186 266.577637,229.950256 
	C264.764801,232.824341 261.423218,232.626740 258.750305,230.380249 
	C256.728455,228.680939 254.534958,226.956940 253.168106,224.774124 
	C251.899704,222.748505 250.541122,219.701202 251.225830,217.841431 
	C251.878479,216.068787 255.118698,215.248810 257.602112,214.071991 
z" />
	<path fill="#828282" opacity="1.000000" stroke="none" d="
M239.426483,290.128510 
	C236.173447,290.234802 233.355377,290.292511 230.537201,290.297729 
	C226.705475,290.304779 224.014130,288.822296 223.917358,284.602448 
	C223.821655,280.429810 226.327591,278.673767 230.207687,278.553253 
	C232.692856,278.476074 235.382446,277.946106 237.614838,278.700653 
	C239.949341,279.489746 242.808914,281.151154 243.705505,283.192566 
	C245.006821,286.155518 243.350342,288.981506 239.426483,290.128510 
z" />
	<path fill="#828282" opacity="1.000000" stroke="none" d="
M404.330170,290.301514 
	C399.883911,290.086090 397.688354,288.077454 397.907074,283.985535 
	C398.136749,279.689423 401.088165,278.552185 404.780243,278.528198 
	C407.429626,278.511017 410.094971,278.423523 412.725555,278.666504 
	C416.253784,278.992401 418.084808,281.171539 417.968872,284.681152 
	C417.861053,287.945068 416.046051,289.945801 412.729187,290.182373 
	C410.090240,290.370605 407.431427,290.280304 404.330170,290.301514 
z" />
	<path fill="#828282" opacity="1.000000" stroke="none" d="
M253.819122,354.530853 
	C249.459091,350.499146 249.250626,348.147430 252.814072,344.348480 
	C254.849197,342.178833 256.807648,339.703247 259.322235,338.300354 
	C260.976105,337.377563 264.106934,337.328827 265.574829,338.341064 
	C267.064240,339.368164 268.118561,342.244232 267.960632,344.197052 
	C267.594208,348.726685 258.787079,355.064941 253.819122,354.530853 
z" />
	<path fill="#F0F0F0" opacity="1.000000" stroke="none" d="
M314.865906,288.775391 
	C312.981781,284.103638 313.271149,279.699646 317.435760,277.543213 
	C320.074615,276.176819 324.194275,276.161530 327.085999,277.165009 
	C330.899628,278.488464 332.274658,282.659729 330.875153,286.291473 
	C329.881653,288.869598 327.410370,291.641510 324.910583,292.696625 
	C321.180023,294.271271 317.450500,292.811462 314.865906,288.775391 
z" />
</svg>
