<svg version="1.1" id="Layer_1" xmlns="http://www.w3.org/2000/svg" xmlns:xlink="http://www.w3.org/1999/xlink" x="0px"
	y="0px" width="100%" viewBox="0 0 512 512" enable-background="new 0 0 512 512" xml:space="preserve">
	<path fill="none" opacity="1.000000" stroke="none" d="
M278.000000,513.000000 
	C185.355820,513.000000 93.211639,513.000000 1.033728,513.000000 
	C1.033728,342.397461 1.033728,171.794907 1.033728,1.096182 
	C171.560867,1.096182 342.121796,1.096182 512.841370,1.096182 
	C512.841370,171.666550 512.841370,342.333252 512.841370,513.000000 
	C434.794891,513.000000 356.647430,513.000000 278.000000,513.000000 
M265.205719,32.021881 
	C253.259338,29.063913 242.962219,33.032642 233.050201,39.324253 
	C227.395981,42.913254 221.426315,46.024685 215.494781,49.154202 
	C185.117813,65.181328 153.122116,76.894608 119.463242,83.615982 
	C104.520081,86.600006 89.271324,88.138351 74.115677,89.951767 
	C55.980141,92.121750 39.590424,107.468468 40.030758,125.972229 
	C40.168339,131.753784 40.634930,137.528748 41.004284,143.303299 
	C41.657833,153.521088 42.197357,163.749405 43.063694,173.949615 
	C44.597359,192.006851 46.321430,210.048080 48.001419,228.092682 
	C49.298962,242.029465 50.425156,255.987213 52.029804,269.889221 
	C54.669792,292.761017 61.837570,314.380981 71.671341,335.060211 
	C80.242485,353.084351 91.154312,369.641022 104.198830,384.874756 
	C120.038414,403.372620 138.135956,419.238647 158.781006,431.920441 
	C184.357819,447.631744 210.472076,462.470490 236.409164,477.591827 
	C250.146042,485.600403 264.049103,485.101776 277.760864,477.540924 
	C284.660370,473.736511 291.303864,469.469421 298.085205,465.448853 
	C318.041626,453.616943 338.051270,441.874115 357.960083,429.962708 
	C376.746704,418.722717 392.685608,404.006348 407.348755,387.966156 
	C419.818420,374.325409 430.541290,359.167542 438.467743,342.519012 
	C445.551331,327.640839 451.498413,312.102844 456.532623,296.402496 
	C461.189331,281.879608 463.276306,266.682678 464.112579,251.328476 
	C465.000671,235.023132 466.677765,218.760742 468.009613,202.479553 
	C468.695831,194.091125 469.403778,185.704376 470.061218,177.313690 
	C471.388702,160.371735 472.976318,143.443665 473.922638,126.480064 
	C474.976593,107.587067 457.507111,91.301514 438.388885,89.896889 
	C427.096985,89.067268 415.778259,87.750977 404.653229,85.678505 
	C380.956787,81.264122 357.583618,75.370750 335.354248,65.870674 
	C321.943939,60.139587 308.887726,53.565319 295.767914,47.173882 
	C285.783173,42.309731 275.948792,37.136936 265.205719,32.021881 
z" />
	<path fill="#0DB561" opacity="1.000000" stroke="none" d="
M265.626617,32.061668 
	C275.948792,37.136936 285.783173,42.309731 295.767914,47.173882 
	C308.887726,53.565319 321.943939,60.139587 335.354248,65.870674 
	C357.583618,75.370750 380.956787,81.264122 404.653229,85.678505 
	C415.778259,87.750977 427.096985,89.067268 438.388885,89.896889 
	C457.507111,91.301514 474.976593,107.587067 473.922638,126.480064 
	C472.976318,143.443665 471.388702,160.371735 470.061218,177.313690 
	C469.403778,185.704376 468.695831,194.091125 468.009613,202.479553 
	C466.677765,218.760742 465.000671,235.023132 464.112579,251.328476 
	C463.276306,266.682678 461.189331,281.879608 456.532623,296.402496 
	C451.498413,312.102844 445.551331,327.640839 438.467743,342.519012 
	C430.541290,359.167542 419.818420,374.325409 407.348755,387.966156 
	C392.685608,404.006348 376.746704,418.722717 357.960083,429.962708 
	C338.051270,441.874115 318.041626,453.616943 298.085205,465.448853 
	C291.303864,469.469421 284.660370,473.736511 277.760864,477.540924 
	C264.049103,485.101776 250.146042,485.600403 236.409164,477.591827 
	C210.472076,462.470490 184.357819,447.631744 158.781006,431.920441 
	C138.135956,419.238647 120.038414,403.372620 104.198830,384.874756 
	C91.154312,369.641022 80.242485,353.084351 71.671341,335.060211 
	C61.837570,314.380981 54.669792,292.761017 52.029804,269.889221 
	C50.425156,255.987213 49.298962,242.029465 48.001419,228.092682 
	C46.321430,210.048080 44.597359,192.006851 43.063694,173.949615 
	C42.197357,163.749405 41.657833,153.521088 41.004284,143.303299 
	C40.634930,137.528748 40.168339,131.753784 40.030758,125.972229 
	C39.590424,107.468468 55.980141,92.121750 74.115677,89.951767 
	C89.271324,88.138351 104.520081,86.600006 119.463242,83.615982 
	C153.122116,76.894608 185.117813,65.181328 215.494781,49.154202 
	C221.426315,46.024685 227.395981,42.913254 233.050201,39.324253 
	C242.962219,33.032642 253.259338,29.063913 265.626617,32.061668 
M304.241882,247.742310 
	C314.489349,237.495621 324.785065,227.296280 334.936646,216.955460 
	C336.620972,215.239731 338.192413,213.074890 338.926056,210.827133 
	C341.190216,203.889618 338.138092,196.481659 331.910370,192.731125 
	C325.630066,188.948914 318.146240,189.909286 312.752930,195.297104 
	C290.127167,217.899811 267.525696,240.526840 244.907959,263.137604 
	C243.659607,264.385559 242.344757,265.566956 240.866943,266.962494 
	C230.968796,257.038818 221.472992,247.469589 211.920258,237.957550 
	C205.018341,231.085037 195.224960,230.925400 188.826340,237.491150 
	C182.412231,244.072800 182.694565,253.269409 189.570435,260.159210 
	C202.278061,272.892578 215.003189,285.608490 227.730850,298.321838 
	C236.692596,307.273529 244.656006,307.310272 253.563385,298.414673 
	C270.299591,281.700623 287.016602,264.967377 304.241882,247.742310 
z" />
	<path fill="#FEFFFF" opacity="1.000000" stroke="none" d="
M303.991730,247.992203 
	C287.016602,264.967377 270.299591,281.700623 253.563385,298.414673 
	C244.656006,307.310272 236.692596,307.273529 227.730850,298.321838 
	C215.003189,285.608490 202.278061,272.892578 189.570435,260.159210 
	C182.694565,253.269409 182.412231,244.072800 188.826340,237.491150 
	C195.224960,230.925400 205.018341,231.085037 211.920258,237.957550 
	C221.472992,247.469589 230.968796,257.038818 240.866943,266.962494 
	C242.344757,265.566956 243.659607,264.385559 244.907959,263.137604 
	C267.525696,240.526840 290.127167,217.899811 312.752930,195.297104 
	C318.146240,189.909286 325.630066,188.948914 331.910370,192.731125 
	C338.138092,196.481659 341.190216,203.889618 338.926056,210.827133 
	C338.192413,213.074890 336.620972,215.239731 334.936646,216.955460 
	C324.785065,227.296280 314.489349,237.495621 303.991730,247.992203 
z" />
</svg>
